# asset-tooling medieval character kit OBJ v1
# recipe-version 1
o medieval-archer
g left-leg
v -230 0 -100
v -50 0 -100
v -50 700 -100
v -230 700 -100
v -230 0 100
v -50 0 100
v -50 700 100
v -230 700 100
f 1 3 2
f 1 4 3
f 5 6 7
f 5 7 8
f 1 2 6
f 1 6 5
f 4 8 7
f 4 7 3
f 1 5 8
f 1 8 4
f 2 3 7
f 2 7 6
g right-leg
v 50 0 -100
v 230 0 -100
v 230 700 -100
v 50 700 -100
v 50 0 100
v 230 0 100
v 230 700 100
v 50 700 100
f 9 11 10
f 9 12 11
f 13 14 15
f 13 15 16
f 9 10 14
f 9 14 13
f 12 16 15
f 12 15 11
f 9 13 16
f 9 16 12
f 10 11 15
f 10 15 14
g torso
v -230 700 -120
v 230 700 -120
v 230 1380 -120
v -230 1380 -120
v -230 700 120
v 230 700 120
v 230 1380 120
v -230 1380 120
f 17 19 18
f 17 20 19
f 21 22 23
f 21 23 24
f 17 18 22
f 17 22 21
f 20 24 23
f 20 23 19
f 17 21 24
f 17 24 20
f 18 19 23
f 18 23 22
g head
v 0 1760 0
v 68.88294 1746.2984 0
v 63.639571 1746.2984 26.36033
v 48.707609 1746.2984 48.707609
v 26.36033 1746.2984 63.639571
v 0 1746.2984 68.88294
v -26.36033 1746.2984 63.639571
v -48.707609 1746.2984 48.707609
v -63.639571 1746.2984 26.36033
v -68.88294 1746.2984 0
v -63.639571 1746.2984 -26.36033
v -48.707609 1746.2984 -48.707609
v -26.36033 1746.2984 -63.639571
v 0 1746.2984 -68.88294
v 26.36033 1746.2984 -63.639571
v 48.707609 1746.2984 -48.707609
v 63.639571 1746.2984 -26.36033
v 127.27926 1707.27926 0
v 117.590763 1707.27926 48.707609
v 90.000056 1707.27926 90.000056
v 48.707609 1707.27926 117.590763
v 0 1707.27926 127.27926
v -48.707609 1707.27926 117.590763
v -90.000056 1707.27926 90.000056
v -117.590763 1707.27926 48.707609
v -127.27926 1707.27926 0
v -117.590763 1707.27926 -48.707609
v -90.000056 1707.27926 -90.000056
v -48.707609 1707.27926 -117.590763
v 0 1707.27926 -127.27926
v 48.707609 1707.27926 -117.590763
v 90.000056 1707.27926 -90.000056
v 117.590763 1707.27926 -48.707609
v 166.2984 1648.88294 0
v 153.639766 1648.88294 63.639571
v 117.590763 1648.88294 117.590763
v 63.639571 1648.88294 153.639766
v 0 1648.88294 166.2984
v -63.639571 1648.88294 153.639766
v -117.590763 1648.88294 117.590763
v -153.639766 1648.88294 63.639571
v -166.2984 1648.88294 0
v -153.639766 1648.88294 -63.639571
v -117.590763 1648.88294 -117.590763
v -63.639571 1648.88294 -153.639766
v 0 1648.88294 -166.2984
v 63.639571 1648.88294 -153.639766
v 117.590763 1648.88294 -117.590763
v 153.639766 1648.88294 -63.639571
v 180 1580 0
v 166.2984 1580 68.88294
v 127.27926 1580 127.27926
v 68.88294 1580 166.2984
v 0 1580 180
v -68.88294 1580 166.2984
v -127.27926 1580 127.27926
v -166.2984 1580 68.88294
v -180 1580 0
v -166.2984 1580 -68.88294
v -127.27926 1580 -127.27926
v -68.88294 1580 -166.2984
v 0 1580 -180
v 68.88294 1580 -166.2984
v 127.27926 1580 -127.27926
v 166.2984 1580 -68.88294
v 166.2984 1511.11706 0
v 153.639766 1511.11706 63.639571
v 117.590763 1511.11706 117.590763
v 63.639571 1511.11706 153.639766
v 0 1511.11706 166.2984
v -63.639571 1511.11706 153.639766
v -117.590763 1511.11706 117.590763
v -153.639766 1511.11706 63.639571
v -166.2984 1511.11706 0
v -153.639766 1511.11706 -63.639571
v -117.590763 1511.11706 -117.590763
v -63.639571 1511.11706 -153.639766
v 0 1511.11706 -166.2984
v 63.639571 1511.11706 -153.639766
v 117.590763 1511.11706 -117.590763
v 153.639766 1511.11706 -63.639571
v 127.27926 1452.72074 0
v 117.590763 1452.72074 48.707609
v 90.000056 1452.72074 90.000056
v 48.707609 1452.72074 117.590763
v 0 1452.72074 127.27926
v -48.707609 1452.72074 117.590763
v -90.000056 1452.72074 90.000056
v -117.590763 1452.72074 48.707609
v -127.27926 1452.72074 0
v -117.590763 1452.72074 -48.707609
v -90.000056 1452.72074 -90.000056
v -48.707609 1452.72074 -117.590763
v 0 1452.72074 -127.27926
v 48.707609 1452.72074 -117.590763
v 90.000056 1452.72074 -90.000056
v 117.590763 1452.72074 -48.707609
v 68.88294 1413.7016 0
v 63.639571 1413.7016 26.36033
v 48.707609 1413.7016 48.707609
v 26.36033 1413.7016 63.639571
v 0 1413.7016 68.88294
v -26.36033 1413.7016 63.639571
v -48.707609 1413.7016 48.707609
v -63.639571 1413.7016 26.36033
v -68.88294 1413.7016 0
v -63.639571 1413.7016 -26.36033
v -48.707609 1413.7016 -48.707609
v -26.36033 1413.7016 -63.639571
v 0 1413.7016 -68.88294
v 26.36033 1413.7016 -63.639571
v 48.707609 1413.7016 -48.707609
v 63.639571 1413.7016 -26.36033
v 0 1400 0
f 25 27 26
f 25 28 27
f 25 29 28
f 25 30 29
f 25 31 30
f 25 32 31
f 25 33 32
f 25 34 33
f 25 35 34
f 25 36 35
f 25 37 36
f 25 38 37
f 25 39 38
f 25 40 39
f 25 41 40
f 25 26 41
f 26 27 42
f 27 43 42
f 27 28 43
f 28 44 43
f 28 29 44
f 29 45 44
f 29 30 45
f 30 46 45
f 30 31 46
f 31 47 46
f 31 32 47
f 32 48 47
f 32 33 48
f 33 49 48
f 33 34 49
f 34 50 49
f 34 35 50
f 35 51 50
f 35 36 51
f 36 52 51
f 36 37 52
f 37 53 52
f 37 38 53
f 38 54 53
f 38 39 54
f 39 55 54
f 39 40 55
f 40 56 55
f 40 41 56
f 41 57 56
f 41 26 57
f 26 42 57
f 42 43 58
f 43 59 58
f 43 44 59
f 44 60 59
f 44 45 60
f 45 61 60
f 45 46 61
f 46 62 61
f 46 47 62
f 47 63 62
f 47 48 63
f 48 64 63
f 48 49 64
f 49 65 64
f 49 50 65
f 50 66 65
f 50 51 66
f 51 67 66
f 51 52 67
f 52 68 67
f 52 53 68
f 53 69 68
f 53 54 69
f 54 70 69
f 54 55 70
f 55 71 70
f 55 56 71
f 56 72 71
f 56 57 72
f 57 73 72
f 57 42 73
f 42 58 73
f 58 59 74
f 59 75 74
f 59 60 75
f 60 76 75
f 60 61 76
f 61 77 76
f 61 62 77
f 62 78 77
f 62 63 78
f 63 79 78
f 63 64 79
f 64 80 79
f 64 65 80
f 65 81 80
f 65 66 81
f 66 82 81
f 66 67 82
f 67 83 82
f 67 68 83
f 68 84 83
f 68 69 84
f 69 85 84
f 69 70 85
f 70 86 85
f 70 71 86
f 71 87 86
f 71 72 87
f 72 88 87
f 72 73 88
f 73 89 88
f 73 58 89
f 58 74 89
f 74 75 90
f 75 91 90
f 75 76 91
f 76 92 91
f 76 77 92
f 77 93 92
f 77 78 93
f 78 94 93
f 78 79 94
f 79 95 94
f 79 80 95
f 80 96 95
f 80 81 96
f 81 97 96
f 81 82 97
f 82 98 97
f 82 83 98
f 83 99 98
f 83 84 99
f 84 100 99
f 84 85 100
f 85 101 100
f 85 86 101
f 86 102 101
f 86 87 102
f 87 103 102
f 87 88 103
f 88 104 103
f 88 89 104
f 89 105 104
f 89 74 105
f 74 90 105
f 90 91 106
f 91 107 106
f 91 92 107
f 92 108 107
f 92 93 108
f 93 109 108
f 93 94 109
f 94 110 109
f 94 95 110
f 95 111 110
f 95 96 111
f 96 112 111
f 96 97 112
f 97 113 112
f 97 98 113
f 98 114 113
f 98 99 114
f 99 115 114
f 99 100 115
f 100 116 115
f 100 101 116
f 101 117 116
f 101 102 117
f 102 118 117
f 102 103 118
f 103 119 118
f 103 104 119
f 104 120 119
f 104 105 120
f 105 121 120
f 105 90 121
f 90 106 121
f 106 107 122
f 107 123 122
f 107 108 123
f 108 124 123
f 108 109 124
f 109 125 124
f 109 110 125
f 110 126 125
f 110 111 126
f 111 127 126
f 111 112 127
f 112 128 127
f 112 113 128
f 113 129 128
f 113 114 129
f 114 130 129
f 114 115 130
f 115 131 130
f 115 116 131
f 116 132 131
f 116 117 132
f 117 133 132
f 117 118 133
f 118 134 133
f 118 119 134
f 119 135 134
f 119 120 135
f 120 136 135
f 120 121 136
f 121 137 136
f 121 106 137
f 106 122 137
f 138 122 123
f 138 123 124
f 138 124 125
f 138 125 126
f 138 126 127
f 138 127 128
f 138 128 129
f 138 129 130
f 138 130 131
f 138 131 132
f 138 132 133
f 138 133 134
f 138 134 135
f 138 135 136
f 138 136 137
f 138 137 122
g left-arm
v -370 750 -70
v -250 750 -70
v -250 1350 -70
v -370 1350 -70
v -370 750 70
v -250 750 70
v -250 1350 70
v -370 1350 70
f 139 141 140
f 139 142 141
f 143 144 145
f 143 145 146
f 139 140 144
f 139 144 143
f 142 146 145
f 142 145 141
f 139 143 146
f 139 146 142
f 140 141 145
f 140 145 144
g right-arm
v 250 750 -70
v 370 750 -70
v 370 1350 -70
v 250 1350 -70
v 250 750 70
v 370 750 70
v 370 1350 70
v 250 1350 70
f 147 149 148
f 147 150 149
f 151 152 153
f 151 153 154
f 147 148 152
f 147 152 151
f 150 154 153
f 150 153 149
f 147 151 154
f 147 154 150
f 148 149 153
f 148 153 152
g bow-stave
v 465 425 -27.5
v 535 425 -27.5
v 535 1675 -27.5
v 465 1675 -27.5
v 465 425 27.5
v 535 425 27.5
v 535 1675 27.5
v 465 1675 27.5
f 155 157 156
f 155 158 157
f 159 160 161
f 159 161 162
f 155 156 160
f 155 160 159
f 158 162 161
f 158 161 157
f 155 159 162
f 155 162 158
f 156 157 161
f 156 161 160
g bow-string
v 552 490 -8
v 568 490 -8
v 568 1610 -8
v 552 1610 -8
v 552 490 8
v 568 490 8
v 568 1610 8
v 552 1610 8
f 163 165 164
f 163 166 165
f 167 168 169
f 167 169 170
f 163 164 168
f 163 168 167
f 166 170 169
f 166 169 165
f 163 167 170
f 163 170 166
f 164 165 169
f 164 169 168
g quiver
v -340 860 -340
v -160 860 -340
v -160 1480 -340
v -340 1480 -340
v -340 860 -160
v -160 860 -160
v -160 1480 -160
v -340 1480 -160
f 171 173 172
f 171 174 173
f 175 176 177
f 175 177 178
f 171 172 176
f 171 176 175
f 174 178 177
f 174 177 173
f 171 175 178
f 171 178 174
f 172 173 177
f 172 177 176
